<mxfile host="app.diagrams.net" modified="2024-05-30T18:40:00.860Z" agent="Mozilla/5.0 (Windows NT 10.0; Win64; x64) AppleWebKit/537.36 (KHTML, like Gecko) Chrome/125.0.0.0 Safari/537.36" etag="fI2GTyJemIIx5VVMalTe" version="24.4.10" type="device">
  <diagram name="Page-1" id="D9KrbN1HpGchZC3lj7AW">
    <mxGraphModel dx="1482" dy="1005" grid="1" gridSize="10" guides="1" tooltips="1" connect="1" arrows="1" fold="1" page="1" pageScale="1" pageWidth="850" pageHeight="1100" math="0" shadow="0">
      <root>
        <mxCell id="0" />
        <mxCell id="1" parent="0" />
        <mxCell id="H8Bho8Vx2GJubfs2moUF-58" value="" style="rounded=0;whiteSpace=wrap;html=1;" parent="1" vertex="1">
          <mxGeometry x="-840" y="20" width="1210" height="900" as="geometry" />
        </mxCell>
        <mxCell id="q1pkWmGgmF4G5Z5k3sib-1" value="Customer" style="shape=umlActor;verticalLabelPosition=bottom;verticalAlign=top;html=1;outlineConnect=0;" parent="1" vertex="1">
          <mxGeometry x="-800" y="320" width="30" height="60" as="geometry" />
        </mxCell>
        <mxCell id="q1pkWmGgmF4G5Z5k3sib-2" value="Librarian" style="shape=umlActor;verticalLabelPosition=bottom;verticalAlign=top;html=1;outlineConnect=0;" parent="1" vertex="1">
          <mxGeometry x="290" y="310" width="30" height="60" as="geometry" />
        </mxCell>
        <mxCell id="q1pkWmGgmF4G5Z5k3sib-6" value="&lt;b&gt;VideoBusters Video Rental Store&lt;br&gt;&lt;/b&gt;" style="text;html=1;align=center;verticalAlign=middle;whiteSpace=wrap;rounded=0;" parent="1" vertex="1">
          <mxGeometry x="-365" y="50" width="260" height="30" as="geometry" />
        </mxCell>
        <mxCell id="q1pkWmGgmF4G5Z5k3sib-31" value="" style="endArrow=none;html=1;rounded=0;entryX=1;entryY=0.5;entryDx=0;entryDy=0;exitX=0;exitY=0.3333333333333333;exitDx=0;exitDy=0;exitPerimeter=0;" parent="1" source="q1pkWmGgmF4G5Z5k3sib-2" target="H8Bho8Vx2GJubfs2moUF-10" edge="1">
          <mxGeometry width="50" height="50" relative="1" as="geometry">
            <mxPoint x="-180" y="360" as="sourcePoint" />
            <mxPoint x="239.999999999995" y="305" as="targetPoint" />
          </mxGeometry>
        </mxCell>
        <mxCell id="wmEHwvrF9gfvvMeBKOm7-9" value="" style="endArrow=none;html=1;rounded=0;entryX=0;entryY=0.5;entryDx=0;entryDy=0;exitX=1;exitY=0.3333333333333333;exitDx=0;exitDy=0;exitPerimeter=0;" parent="1" source="q1pkWmGgmF4G5Z5k3sib-1" target="H8Bho8Vx2GJubfs2moUF-49" edge="1">
          <mxGeometry width="50" height="50" relative="1" as="geometry">
            <mxPoint x="-734" y="355" as="sourcePoint" />
            <mxPoint x="-706.5165042944955" y="487.3223304703365" as="targetPoint" />
          </mxGeometry>
        </mxCell>
        <mxCell id="wmEHwvrF9gfvvMeBKOm7-11" value="" style="endArrow=none;html=1;rounded=0;entryX=0;entryY=0.5;entryDx=0;entryDy=0;exitX=1;exitY=0.3333333333333333;exitDx=0;exitDy=0;exitPerimeter=0;" parent="1" source="q1pkWmGgmF4G5Z5k3sib-1" target="H8Bho8Vx2GJubfs2moUF-47" edge="1">
          <mxGeometry width="50" height="50" relative="1" as="geometry">
            <mxPoint x="-740" y="340" as="sourcePoint" />
            <mxPoint x="-709.0165042944955" y="222.67766952966304" as="targetPoint" />
          </mxGeometry>
        </mxCell>
        <mxCell id="wmEHwvrF9gfvvMeBKOm7-13" value="" style="endArrow=none;html=1;rounded=0;entryX=0;entryY=0.5;entryDx=0;entryDy=0;exitX=1;exitY=0.3333333333333333;exitDx=0;exitDy=0;exitPerimeter=0;" parent="1" source="q1pkWmGgmF4G5Z5k3sib-1" target="H8Bho8Vx2GJubfs2moUF-48" edge="1">
          <mxGeometry width="50" height="50" relative="1" as="geometry">
            <mxPoint x="-810" y="360" as="sourcePoint" />
            <mxPoint x="-720" y="405" as="targetPoint" />
          </mxGeometry>
        </mxCell>
        <mxCell id="wmEHwvrF9gfvvMeBKOm7-50" value="" style="endArrow=none;html=1;rounded=0;entryX=1;entryY=1;entryDx=0;entryDy=0;exitX=0;exitY=0.3333333333333333;exitDx=0;exitDy=0;exitPerimeter=0;" parent="1" source="q1pkWmGgmF4G5Z5k3sib-2" target="H8Bho8Vx2GJubfs2moUF-16" edge="1">
          <mxGeometry width="50" height="50" relative="1" as="geometry">
            <mxPoint x="290" y="270" as="sourcePoint" />
            <mxPoint x="239.999999999995" y="205" as="targetPoint" />
          </mxGeometry>
        </mxCell>
        <mxCell id="wmEHwvrF9gfvvMeBKOm7-57" value="" style="endArrow=none;html=1;rounded=0;entryX=1;entryY=0;entryDx=0;entryDy=0;exitX=0;exitY=0.3333333333333333;exitDx=0;exitDy=0;exitPerimeter=0;" parent="1" source="q1pkWmGgmF4G5Z5k3sib-2" target="H8Bho8Vx2GJubfs2moUF-15" edge="1">
          <mxGeometry width="50" height="50" relative="1" as="geometry">
            <mxPoint x="300" y="340" as="sourcePoint" />
            <mxPoint x="240.00999999999476" y="455" as="targetPoint" />
          </mxGeometry>
        </mxCell>
        <mxCell id="wmEHwvrF9gfvvMeBKOm7-96" value="" style="endArrow=none;html=1;rounded=0;entryX=1;entryY=0;entryDx=0;entryDy=0;exitX=0;exitY=0.3333333333333333;exitDx=0;exitDy=0;exitPerimeter=0;" parent="1" source="q1pkWmGgmF4G5Z5k3sib-2" target="H8Bho8Vx2GJubfs2moUF-13" edge="1">
          <mxGeometry width="50" height="50" relative="1" as="geometry">
            <mxPoint x="300" y="340" as="sourcePoint" />
            <mxPoint x="239.999999999995" y="705" as="targetPoint" />
          </mxGeometry>
        </mxCell>
        <mxCell id="H8Bho8Vx2GJubfs2moUF-1" value="Reject non-cash payment" style="ellipse;whiteSpace=wrap;html=1;" parent="1" vertex="1">
          <mxGeometry x="-65.03999999999999" y="90" width="105" height="70" as="geometry" />
        </mxCell>
        <mxCell id="H8Bho8Vx2GJubfs2moUF-3" value="Update rental status" style="ellipse;whiteSpace=wrap;html=1;" parent="1" vertex="1">
          <mxGeometry x="-62.52000000000001" y="270" width="105" height="70" as="geometry" />
        </mxCell>
        <mxCell id="H8Bho8Vx2GJubfs2moUF-4" value="Lookup video medium type value" style="ellipse;whiteSpace=wrap;html=1;" parent="1" vertex="1">
          <mxGeometry x="-232.52" y="720" width="105" height="70" as="geometry" />
        </mxCell>
        <mxCell id="H8Bho8Vx2GJubfs2moUF-6" value="&lt;div&gt;Create transaction report&lt;/div&gt;" style="ellipse;whiteSpace=wrap;html=1;" parent="1" vertex="1">
          <mxGeometry x="-62.51999999999998" y="180" width="105" height="70" as="geometry" />
        </mxCell>
        <mxCell id="H8Bho8Vx2GJubfs2moUF-8" value="Update reservation status" style="ellipse;whiteSpace=wrap;html=1;" parent="1" vertex="1">
          <mxGeometry x="-60.010000000000005" y="630" width="105" height="70" as="geometry" />
        </mxCell>
        <mxCell id="H8Bho8Vx2GJubfs2moUF-9" value="Lookup reservation status" style="ellipse;whiteSpace=wrap;html=1;" parent="1" vertex="1">
          <mxGeometry x="-60.010000000000005" y="450" width="105" height="70" as="geometry" />
        </mxCell>
        <mxCell id="H8Bho8Vx2GJubfs2moUF-10" value="Manage rental status" style="ellipse;whiteSpace=wrap;html=1;" parent="1" vertex="1">
          <mxGeometry x="110" y="270" width="105" height="70" as="geometry" />
        </mxCell>
        <mxCell id="H8Bho8Vx2GJubfs2moUF-11" value="&lt;div&gt;Calculate price&lt;/div&gt;" style="ellipse;whiteSpace=wrap;html=1;" parent="1" vertex="1">
          <mxGeometry x="-62.53" y="720" width="105.01" height="70" as="geometry" />
        </mxCell>
        <mxCell id="H8Bho8Vx2GJubfs2moUF-12" value="Lookup customer membership" style="ellipse;whiteSpace=wrap;html=1;" parent="1" vertex="1">
          <mxGeometry x="-232.52" y="810" width="105" height="70" as="geometry" />
        </mxCell>
        <mxCell id="H8Bho8Vx2GJubfs2moUF-13" value="Require payment" style="ellipse;whiteSpace=wrap;html=1;" parent="1" vertex="1">
          <mxGeometry x="107.47999999999999" y="720" width="105" height="70" as="geometry" />
        </mxCell>
        <mxCell id="H8Bho8Vx2GJubfs2moUF-14" value="Call customer" style="ellipse;whiteSpace=wrap;html=1;" parent="1" vertex="1">
          <mxGeometry x="-60.010000000000005" y="540" width="104.01" height="70" as="geometry" />
        </mxCell>
        <mxCell id="H8Bho8Vx2GJubfs2moUF-15" value="Manage reservation" style="ellipse;whiteSpace=wrap;html=1;" parent="1" vertex="1">
          <mxGeometry x="110" y="540" width="105" height="70" as="geometry" />
        </mxCell>
        <mxCell id="H8Bho8Vx2GJubfs2moUF-16" value="Receive cash payment only" style="ellipse;whiteSpace=wrap;html=1;" parent="1" vertex="1">
          <mxGeometry x="109.96000000000001" y="90" width="105" height="70" as="geometry" />
        </mxCell>
        <mxCell id="H8Bho8Vx2GJubfs2moUF-17" value="" style="endArrow=none;html=1;rounded=0;entryX=1;entryY=0.5;entryDx=0;entryDy=0;exitX=0;exitY=0.5;exitDx=0;exitDy=0;startArrow=classic;startFill=1;dashed=1;" parent="1" source="H8Bho8Vx2GJubfs2moUF-16" target="H8Bho8Vx2GJubfs2moUF-1" edge="1">
          <mxGeometry width="50" height="50" relative="1" as="geometry">
            <mxPoint x="94.96000000000001" y="124.75" as="sourcePoint" />
            <mxPoint x="44.96000000000001" y="124.75" as="targetPoint" />
          </mxGeometry>
        </mxCell>
        <mxCell id="H8Bho8Vx2GJubfs2moUF-18" value="&amp;lt;&amp;lt;Includes&amp;gt;&amp;gt;" style="edgeLabel;html=1;align=center;verticalAlign=middle;resizable=0;points=[];" parent="H8Bho8Vx2GJubfs2moUF-17" vertex="1" connectable="0">
          <mxGeometry x="-0.4177" relative="1" as="geometry">
            <mxPoint x="-14" y="25" as="offset" />
          </mxGeometry>
        </mxCell>
        <mxCell id="H8Bho8Vx2GJubfs2moUF-19" value="" style="endArrow=none;html=1;rounded=0;entryX=1;entryY=0.5;entryDx=0;entryDy=0;exitX=0;exitY=0.5;exitDx=0;exitDy=0;startArrow=classic;startFill=1;dashed=1;" parent="1" source="H8Bho8Vx2GJubfs2moUF-10" target="H8Bho8Vx2GJubfs2moUF-3" edge="1">
          <mxGeometry width="50" height="50" relative="1" as="geometry">
            <mxPoint x="112.47" y="264.6400000000001" as="sourcePoint" />
            <mxPoint x="42.47" y="264.6400000000001" as="targetPoint" />
          </mxGeometry>
        </mxCell>
        <mxCell id="H8Bho8Vx2GJubfs2moUF-20" value="&amp;lt;&amp;lt;Includes&amp;gt;&amp;gt;" style="edgeLabel;html=1;align=center;verticalAlign=middle;resizable=0;points=[];" parent="H8Bho8Vx2GJubfs2moUF-19" vertex="1" connectable="0">
          <mxGeometry x="-0.4177" relative="1" as="geometry">
            <mxPoint x="-18" y="14" as="offset" />
          </mxGeometry>
        </mxCell>
        <mxCell id="H8Bho8Vx2GJubfs2moUF-21" value="" style="endArrow=none;html=1;rounded=0;entryX=1;entryY=0.5;entryDx=0;entryDy=0;exitX=0;exitY=0.5;exitDx=0;exitDy=0;startArrow=classic;startFill=1;dashed=1;" parent="1" source="H8Bho8Vx2GJubfs2moUF-15" target="H8Bho8Vx2GJubfs2moUF-14" edge="1">
          <mxGeometry width="50" height="50" relative="1" as="geometry">
            <mxPoint x="109.99000000000001" y="574.5" as="sourcePoint" />
            <mxPoint x="44.99000000000001" y="574.5" as="targetPoint" />
          </mxGeometry>
        </mxCell>
        <mxCell id="H8Bho8Vx2GJubfs2moUF-22" value="&amp;lt;&amp;lt;Extends&amp;gt;&amp;gt;" style="edgeLabel;html=1;align=center;verticalAlign=middle;resizable=0;points=[];" parent="H8Bho8Vx2GJubfs2moUF-21" vertex="1" connectable="0">
          <mxGeometry x="-0.4177" relative="1" as="geometry">
            <mxPoint x="-14" y="25" as="offset" />
          </mxGeometry>
        </mxCell>
        <mxCell id="H8Bho8Vx2GJubfs2moUF-23" value="" style="endArrow=none;html=1;rounded=0;entryX=1;entryY=0;entryDx=0;entryDy=0;exitX=0;exitY=1;exitDx=0;exitDy=0;startArrow=classic;startFill=1;dashed=1;" parent="1" source="H8Bho8Vx2GJubfs2moUF-15" target="H8Bho8Vx2GJubfs2moUF-8" edge="1">
          <mxGeometry width="50" height="50" relative="1" as="geometry">
            <mxPoint x="120" y="585" as="sourcePoint" />
            <mxPoint x="55" y="585" as="targetPoint" />
          </mxGeometry>
        </mxCell>
        <mxCell id="H8Bho8Vx2GJubfs2moUF-24" value="&amp;lt;&amp;lt;Includes&amp;gt;&amp;gt;" style="edgeLabel;html=1;align=center;verticalAlign=middle;resizable=0;points=[];" parent="H8Bho8Vx2GJubfs2moUF-23" vertex="1" connectable="0">
          <mxGeometry x="-0.4177" relative="1" as="geometry">
            <mxPoint x="-14" y="25" as="offset" />
          </mxGeometry>
        </mxCell>
        <mxCell id="H8Bho8Vx2GJubfs2moUF-25" value="" style="endArrow=none;html=1;rounded=0;entryX=1;entryY=0.5;entryDx=0;entryDy=0;exitX=0;exitY=0.5;exitDx=0;exitDy=0;startArrow=classic;startFill=1;dashed=1;" parent="1" edge="1">
          <mxGeometry width="50" height="50" relative="1" as="geometry">
            <mxPoint x="104.92000000000019" y="754.76" as="sourcePoint" />
            <mxPoint x="39.92999999999951" y="754.76" as="targetPoint" />
          </mxGeometry>
        </mxCell>
        <mxCell id="H8Bho8Vx2GJubfs2moUF-26" value="&amp;lt;&amp;lt;Includes&amp;gt;&amp;gt;" style="edgeLabel;html=1;align=center;verticalAlign=middle;resizable=0;points=[];" parent="H8Bho8Vx2GJubfs2moUF-25" vertex="1" connectable="0">
          <mxGeometry x="-0.4177" relative="1" as="geometry">
            <mxPoint x="-14" y="25" as="offset" />
          </mxGeometry>
        </mxCell>
        <mxCell id="H8Bho8Vx2GJubfs2moUF-27" value="" style="endArrow=none;html=1;rounded=0;entryX=1;entryY=1;entryDx=0;entryDy=0;exitX=0;exitY=0;exitDx=0;exitDy=0;startArrow=classic;startFill=1;dashed=1;" parent="1" source="H8Bho8Vx2GJubfs2moUF-15" target="H8Bho8Vx2GJubfs2moUF-9" edge="1">
          <mxGeometry width="50" height="50" relative="1" as="geometry">
            <mxPoint x="120" y="585" as="sourcePoint" />
            <mxPoint x="55" y="585" as="targetPoint" />
          </mxGeometry>
        </mxCell>
        <mxCell id="H8Bho8Vx2GJubfs2moUF-28" value="&amp;lt;&amp;lt;Includes&amp;gt;&amp;gt;" style="edgeLabel;html=1;align=center;verticalAlign=middle;resizable=0;points=[];" parent="H8Bho8Vx2GJubfs2moUF-27" vertex="1" connectable="0">
          <mxGeometry x="-0.4177" relative="1" as="geometry">
            <mxPoint x="-14" y="25" as="offset" />
          </mxGeometry>
        </mxCell>
        <mxCell id="H8Bho8Vx2GJubfs2moUF-29" value="Lookup rental status" style="ellipse;whiteSpace=wrap;html=1;" parent="1" vertex="1">
          <mxGeometry x="-62.52000000000001" y="360" width="105" height="70" as="geometry" />
        </mxCell>
        <mxCell id="H8Bho8Vx2GJubfs2moUF-30" value="" style="endArrow=none;html=1;rounded=0;exitX=0;exitY=0.5;exitDx=0;exitDy=0;startArrow=classic;startFill=1;dashed=1;entryX=1;entryY=0.5;entryDx=0;entryDy=0;" parent="1" source="H8Bho8Vx2GJubfs2moUF-11" target="H8Bho8Vx2GJubfs2moUF-4" edge="1">
          <mxGeometry width="50" height="50" relative="1" as="geometry">
            <mxPoint x="-62.54999999999983" y="754.5" as="sourcePoint" />
            <mxPoint x="-112.52" y="755" as="targetPoint" />
          </mxGeometry>
        </mxCell>
        <mxCell id="H8Bho8Vx2GJubfs2moUF-31" value="&amp;lt;&amp;lt;Includes&amp;gt;&amp;gt;" style="edgeLabel;html=1;align=center;verticalAlign=middle;resizable=0;points=[];" parent="H8Bho8Vx2GJubfs2moUF-30" vertex="1" connectable="0">
          <mxGeometry x="-0.4177" relative="1" as="geometry">
            <mxPoint x="-14" y="25" as="offset" />
          </mxGeometry>
        </mxCell>
        <mxCell id="H8Bho8Vx2GJubfs2moUF-32" value="Lookup rental duration" style="ellipse;whiteSpace=wrap;html=1;" parent="1" vertex="1">
          <mxGeometry x="-232.52" y="630" width="105" height="70" as="geometry" />
        </mxCell>
        <mxCell id="H8Bho8Vx2GJubfs2moUF-33" value="" style="endArrow=none;html=1;rounded=0;exitX=0;exitY=0;exitDx=0;exitDy=0;startArrow=classic;startFill=1;dashed=1;entryX=1;entryY=1;entryDx=0;entryDy=0;" parent="1" source="H8Bho8Vx2GJubfs2moUF-11" target="H8Bho8Vx2GJubfs2moUF-32" edge="1">
          <mxGeometry width="50" height="50" relative="1" as="geometry">
            <mxPoint x="-52.519999999999996" y="765" as="sourcePoint" />
            <mxPoint x="-117.52" y="765" as="targetPoint" />
          </mxGeometry>
        </mxCell>
        <mxCell id="H8Bho8Vx2GJubfs2moUF-34" value="&amp;lt;&amp;lt;Includes&amp;gt;&amp;gt;" style="edgeLabel;html=1;align=center;verticalAlign=middle;resizable=0;points=[];" parent="H8Bho8Vx2GJubfs2moUF-33" vertex="1" connectable="0">
          <mxGeometry x="-0.4177" relative="1" as="geometry">
            <mxPoint x="-14" y="25" as="offset" />
          </mxGeometry>
        </mxCell>
        <mxCell id="H8Bho8Vx2GJubfs2moUF-35" value="" style="endArrow=none;html=1;rounded=0;exitX=0;exitY=1;exitDx=0;exitDy=0;startArrow=classic;startFill=1;dashed=1;entryX=1;entryY=0;entryDx=0;entryDy=0;" parent="1" source="H8Bho8Vx2GJubfs2moUF-11" target="H8Bho8Vx2GJubfs2moUF-12" edge="1">
          <mxGeometry width="50" height="50" relative="1" as="geometry">
            <mxPoint x="-37.52" y="740" as="sourcePoint" />
            <mxPoint x="-132.51999999999998" y="680" as="targetPoint" />
          </mxGeometry>
        </mxCell>
        <mxCell id="H8Bho8Vx2GJubfs2moUF-36" value="&amp;lt;&amp;lt;Includes&amp;gt;&amp;gt;" style="edgeLabel;html=1;align=center;verticalAlign=middle;resizable=0;points=[];" parent="H8Bho8Vx2GJubfs2moUF-35" vertex="1" connectable="0">
          <mxGeometry x="-0.4177" relative="1" as="geometry">
            <mxPoint x="-14" y="25" as="offset" />
          </mxGeometry>
        </mxCell>
        <mxCell id="H8Bho8Vx2GJubfs2moUF-39" value="" style="endArrow=none;html=1;rounded=0;entryX=1;entryY=0;entryDx=0;entryDy=0;exitX=0;exitY=1;exitDx=0;exitDy=0;startArrow=classic;startFill=1;dashed=1;" parent="1" source="H8Bho8Vx2GJubfs2moUF-10" target="H8Bho8Vx2GJubfs2moUF-29" edge="1">
          <mxGeometry width="50" height="50" relative="1" as="geometry">
            <mxPoint x="133.47000000000003" y="250" as="sourcePoint" />
            <mxPoint x="37.47" y="210" as="targetPoint" />
          </mxGeometry>
        </mxCell>
        <mxCell id="H8Bho8Vx2GJubfs2moUF-40" value="&amp;lt;&amp;lt;Includes&amp;gt;&amp;gt;" style="edgeLabel;html=1;align=center;verticalAlign=middle;resizable=0;points=[];" parent="H8Bho8Vx2GJubfs2moUF-39" vertex="1" connectable="0">
          <mxGeometry x="-0.4177" relative="1" as="geometry">
            <mxPoint x="-24" y="18" as="offset" />
          </mxGeometry>
        </mxCell>
        <mxCell id="H8Bho8Vx2GJubfs2moUF-42" value="" style="endArrow=none;html=1;rounded=0;exitX=0;exitY=0;exitDx=0;exitDy=0;startArrow=classic;startFill=1;dashed=1;entryX=1;entryY=1;entryDx=0;entryDy=0;" parent="1" source="H8Bho8Vx2GJubfs2moUF-10" target="H8Bho8Vx2GJubfs2moUF-6" edge="1">
          <mxGeometry width="50" height="50" relative="1" as="geometry">
            <mxPoint x="287.47" y="270" as="sourcePoint" />
            <mxPoint x="-287.49" y="265" as="targetPoint" />
          </mxGeometry>
        </mxCell>
        <mxCell id="H8Bho8Vx2GJubfs2moUF-43" value="&amp;lt;&amp;lt;Includes&amp;gt;&amp;gt;" style="edgeLabel;html=1;align=center;verticalAlign=middle;resizable=0;points=[];" parent="H8Bho8Vx2GJubfs2moUF-42" vertex="1" connectable="0">
          <mxGeometry x="-0.4177" relative="1" as="geometry">
            <mxPoint x="-22" y="12" as="offset" />
          </mxGeometry>
        </mxCell>
        <mxCell id="H8Bho8Vx2GJubfs2moUF-47" value="Purchase title" style="ellipse;whiteSpace=wrap;html=1;" parent="1" vertex="1">
          <mxGeometry x="-680" y="220" width="105" height="70" as="geometry" />
        </mxCell>
        <mxCell id="H8Bho8Vx2GJubfs2moUF-48" value="Return title" style="ellipse;whiteSpace=wrap;html=1;" parent="1" vertex="1">
          <mxGeometry x="-680" y="310" width="105" height="70" as="geometry" />
        </mxCell>
        <mxCell id="H8Bho8Vx2GJubfs2moUF-49" value="Rent title" style="ellipse;whiteSpace=wrap;html=1;" parent="1" vertex="1">
          <mxGeometry x="-680" y="400" width="105" height="70" as="geometry" />
        </mxCell>
        <mxCell id="JFB4fge5Wf1V-ydik8tn-1" value="Create a reservation" style="ellipse;whiteSpace=wrap;html=1;" vertex="1" parent="1">
          <mxGeometry x="-680" y="490" width="105" height="70" as="geometry" />
        </mxCell>
        <mxCell id="JFB4fge5Wf1V-ydik8tn-2" value="" style="endArrow=none;html=1;rounded=0;entryX=0;entryY=0.5;entryDx=0;entryDy=0;exitX=1;exitY=0.3333333333333333;exitDx=0;exitDy=0;exitPerimeter=0;" edge="1" parent="1" source="q1pkWmGgmF4G5Z5k3sib-1" target="JFB4fge5Wf1V-ydik8tn-1">
          <mxGeometry width="50" height="50" relative="1" as="geometry">
            <mxPoint x="-760" y="350" as="sourcePoint" />
            <mxPoint x="-670" y="445" as="targetPoint" />
          </mxGeometry>
        </mxCell>
      </root>
    </mxGraphModel>
  </diagram>
</mxfile>
